<?xml version="1.0"?>
<svg xmlns="http://www.w3.org/2000/svg" xmlns:xlink="http://www.w3.org/1999/xlink" xmlns:svgjs="http://svgjs.com/svgjs" version="1.1" width="512" height="512" x="0" y="0" viewBox="0 0 512 512" style="enable-background:new 0 0 512 512" xml:space="preserve" class=""><g><g xmlns="http://www.w3.org/2000/svg"><g><g><g><g><path d="m184.405 161.413c.414 61.654 25.123 116.787 63.895 154.141 38.267-37.871 62.234-93.331 61.82-154.985-.407-60.655-24.329-114.999-62.022-152.312-1.03-1.02-2.706-1.008-3.722.025-37.188 37.816-60.379 92.476-59.971 153.131z" fill="#7eb09b" data-original="#8bc727" style="" class=""/></g></g></g><g><path d="m225.571 161.413c-.335-49.854 15.281-95.648 41.499-131.377-5.841-7.768-12.179-15.054-18.972-21.778-1.03-1.02-2.706-1.008-3.722.025-37.189 37.816-60.379 92.475-59.971 153.131.414 61.654 25.123 116.787 63.895 154.141 7.324-7.248 14.119-15.145 20.324-23.602-26.574-35.336-42.719-80.814-43.053-130.54z" fill="#519e8a" data-original="#81b823" style="" class=""/></g><g><g><g><g><path d="m108.698 429.362c31.315 30.897 71.597 46.247 110.005 45.531.2-38.414-15.689-78.486-47.004-109.384-30.807-30.397-70.294-45.745-108.137-45.553-1.034.005-1.874.857-1.865 1.891.316 37.841 16.193 77.119 47.001 107.515z" fill="#7eb09b" data-original="#8bc727" style="" class=""/></g></g></g><g><path d="m129.467 408.593c-25.321-24.984-40.547-55.967-45.346-87.22-6.866-.972-13.74-1.45-20.56-1.416-1.034.005-1.874.857-1.865 1.891.316 37.841 16.194 77.119 47.001 107.515 31.315 30.897 71.597 46.247 110.005 45.531.038-7.352-.518-14.764-1.654-22.162-31.234-4.421-62.324-19.22-87.581-44.139z" fill="#519e8a" data-original="#81b823" style="" class=""/></g></g><g><g><g><g><path d="m81.848 272.681c29.685 29.289 67.87 43.839 104.278 43.161.189-36.414-14.872-74.4-44.557-103.689-29.204-28.814-66.635-43.364-102.507-43.182-.98.005-1.776.812-1.768 1.792.299 35.871 15.35 73.104 44.554 101.918z" fill="#7eb09b" data-original="#8bc727" style="" class=""/></g></g></g><g><path d="m101.536 252.993c-24.003-23.683-38.436-53.053-42.985-82.68-6.509-.922-13.024-1.375-19.489-1.342-.98.005-1.776.812-1.768 1.792.3 35.871 15.351 73.104 44.554 101.918 29.685 29.289 67.87 43.839 104.278 43.161.036-6.969-.491-13.996-1.568-21.008-29.609-4.191-59.08-18.219-83.022-41.841z" fill="#519e8a" data-original="#81b823" style="" class=""/></g></g></g><g><g><g><g><path d="m332.731 265.992c-40.095 40.637-60.013 92.91-59.085 142.751 49.849.259 101.85-20.359 141.944-60.996 39.445-39.978 59.362-91.219 59.114-140.326-.007-1.342-1.112-2.432-2.453-2.421-49.106.411-100.075 21.014-139.52 60.992z" fill="#7eb09b" data-original="#8bc727" style="" class=""/></g></g></g><g><path d="m359.683 292.944c32.421-32.859 72.626-52.617 113.184-58.844 1.262-8.91 1.882-17.83 1.837-26.68-.007-1.342-1.112-2.432-2.453-2.421-49.106.411-100.075 21.014-139.52 60.992-40.095 40.637-60.013 92.91-59.085 142.751 9.54.05 19.159-.672 28.759-2.146 5.737-40.532 24.94-80.877 57.278-113.652z" fill="#519e8a" data-original="#81b823" style="" class=""/></g><path d="m479.245 200.364c-1.895-1.869-4.409-2.918-7.057-2.863-52.813.441-105.588 23.486-144.796 63.224-38.787 39.311-60.955 91.402-61.268 143.575l-11.362 11.362v-95.979c36.195-36.42 58.279-86.109 62.219-140.137.301-4.131-2.804-7.724-6.936-8.025-4.114-.301-7.724 2.804-8.025 6.935-3.273 44.898-19.908 86.528-47.258 119.026v-186.43c0-4.142-3.358-7.5-7.5-7.5s-7.5 3.358-7.5 7.5v184.333c-30.276-36.182-47.522-83.957-47.858-134.022-.366-54.442 19.404-106.711 54.393-144.244 32.104 33.483 51.811 78.543 55.64 127.467.323 4.129 3.95 7.216 8.063 6.892 4.13-.323 7.216-3.933 6.893-8.063-4.248-54.252-26.805-104.145-63.519-140.489-1.925-1.905-4.512-2.921-7.193-2.926-2.713.019-5.253 1.092-7.152 3.023-39.884 40.557-62.527 98.306-62.124 158.44.4 59.573 23.256 116.209 62.858 156.192v42.209l-46.155-46.155c-.413-39.043-17.374-77.891-46.771-106.896-29.232-28.842-68.237-45.345-107.117-45.345-.231 0-.463 0-.695.001-2.482.013-4.811.994-6.556 2.763-1.746 1.77-2.696 4.111-2.674 6.592.327 39.109 17.379 78.18 46.786 107.194 28.879 28.494 67.092 44.861 105.447 45.323l56.446 56.446c.398.398.833.738 1.289 1.028v105.577l-13.572-13.572c-.31-32.766-11.764-65.842-32.388-93.371-2.483-3.314-7.184-3.989-10.5-1.505-3.315 2.484-3.989 7.185-1.505 10.5 15.281 20.397 25.015 44.098 28.229 68.214l-89.721-89.721c-2.929-2.929-7.678-2.929-10.606 0-2.929 2.929-2.929 7.678 0 10.606l88.672 88.672c-30.916-4.152-60.862-18.962-84.406-42.192-26.688-26.331-42.741-61.204-44.594-96.472 32.203 1.229 63.834 14.045 89.636 36.44 3.128 2.715 7.866 2.38 10.58-.748 2.715-3.128 2.38-7.865-.748-10.58-29.895-25.948-66.997-40.209-104.56-40.209-.249 0-.503.001-.753.002-2.508.012-4.86 1.002-6.625 2.79-1.765 1.787-2.726 4.153-2.706 6.664.344 41.149 18.289 82.26 49.234 112.792 30.432 30.026 70.71 47.255 111.122 47.695l27.405 27.406c1.357 1.358 3.233 2.198 5.305 2.198 4.142 0 7.5-3.358 7.5-7.5v-67.626l20.638-20.638c46.212-.201 92.16-17.399 129.571-48.552 3.183-2.65 3.614-7.379.964-10.563-2.651-3.184-7.38-3.614-10.563-.964-30.435 25.344-66.877 40.737-104.179 44.287l120.967-120.968c2.929-2.929 2.929-7.678 0-10.606-2.93-2.929-7.678-2.929-10.607 0l-119.603 119.602c4.181-42.853 24.03-84.69 56.12-117.213 35.157-35.633 81.943-56.824 129.084-58.639-1.048 43.021-17.868 85.401-47.685 119.865-2.71 3.133-2.367 7.869.765 10.579 3.135 2.71 7.868 2.368 10.579-.765 33.385-38.589 51.636-86.503 51.391-134.917-.014-2.657-1.064-5.15-2.959-7.019zm-392.13 66.978c-25.118-24.783-40.272-57.573-42.132-90.761 33.209 1.415 66.2 16.127 91.318 40.911 22.443 22.143 36.871 50.54 41.055 79.967l-84.229-84.229c-2.929-2.929-7.678-2.929-10.606 0-2.929 2.929-2.929 7.678 0 10.606l83.236 83.236c-28.816-4.133-56.675-18.056-78.642-39.73z" fill="#000000" data-original="#000000" style="" class=""/></g></g></g></svg>
